<svg width="607" height="392" viewBox="0 0 607 392" fill="none" xmlns="http://www.w3.org/2000/svg">
<path d="M271.612 389.265H90.9832C61.4731 389.265 35.0679 370.545 24.7379 342.289L12.7637 309.524H349.842L337.858 342.289C327.528 370.545 301.123 389.265 271.612 389.265Z" fill="#B5E3FF" stroke="#070707" stroke-width="4" stroke-linecap="round" stroke-linejoin="round"/>
<path d="M353.896 296.35H8.70287C5.00098 296.35 2 299.222 2 302.766V303.118C2 306.661 5.00098 309.533 8.70287 309.533H353.896C357.598 309.533 360.599 306.661 360.599 303.118V302.766C360.599 299.222 357.598 296.35 353.896 296.35Z" fill="#343536" stroke="#070707" stroke-width="4" stroke-linecap="round" stroke-linejoin="round"/>
<path d="M468.975 320.727H346.002L350.151 309.524H468.975V320.727Z" fill="#B5E3FF" stroke="#070707" stroke-width="4" stroke-linecap="round" stroke-linejoin="round"/>
<path d="M593.286 301.942H478.128C471.931 301.942 466.908 306.75 466.908 312.681V314.959C466.908 320.89 471.931 325.698 478.128 325.698H593.286C599.482 325.698 604.506 320.89 604.506 314.959V312.681C604.506 306.75 599.482 301.942 593.286 301.942Z" fill="#B5E3FF" stroke="#070707" stroke-width="4" stroke-linecap="round" stroke-linejoin="round"/>
<path d="M136.033 8.80481C65.4142 33.3436 91.7583 70.6927 52.0447 125.661C37.8448 145.313 40.4588 166.398 49.0495 175.69C58.1032 185.49 65.8499 204.281 123.712 202.131C181.015 200.02 202.499 163.831 259.258 156.09C279.149 153.379 302.239 148.479 310.544 130.978C316.493 118.454 312.395 103.728 306.609 91.1396C295.513 66.9656 277.91 44.994 254.248 31.428C225.099 14.7212 190.545 -10.1304 136.033 8.80481Z" fill="#F7F3EF" stroke="#070707" stroke-width="4" stroke-linecap="round" stroke-linejoin="round"/>
<path d="M173.741 134.783C196.734 134.783 215.374 116.941 215.374 94.932C215.374 72.9228 196.734 55.0808 173.741 55.0808C150.747 55.0808 132.107 72.9228 132.107 94.932C132.107 116.941 150.747 134.783 173.741 134.783Z" fill="#EFAF00" stroke="black" stroke-width="4" stroke-linecap="round" stroke-linejoin="round"/>
<path d="M177.949 244.18V285.768" stroke="#070707" stroke-width="4" stroke-linecap="round" stroke-linejoin="round"/>
<path d="M197.572 228.431V270.029" stroke="#070707" stroke-width="4" stroke-linecap="round" stroke-linejoin="round"/>
<path d="M216.664 233.005V274.593" stroke="#070707" stroke-width="4" stroke-linecap="round" stroke-linejoin="round"/>
<path d="M256.901 234.671C258.536 234.671 259.861 233.403 259.861 231.838C259.861 230.274 258.536 229.005 256.901 229.005C255.267 229.005 253.941 230.274 253.941 231.838C253.941 233.403 255.267 234.671 256.901 234.671Z" fill="#F7F3EF" stroke="#070707" stroke-width="4" stroke-linecap="round" stroke-linejoin="round"/>
<path d="M133.879 271.806C136.667 271.806 138.928 269.642 138.928 266.973C138.928 264.304 136.667 262.141 133.879 262.141C131.091 262.141 128.83 264.304 128.83 266.973C128.83 269.642 131.091 271.806 133.879 271.806Z" fill="#F7F3EF" stroke="#070707" stroke-width="4" stroke-linecap="round" stroke-linejoin="round"/>
</svg>
